<?xml version="1.0" standalone="no"?>
<!DOCTYPE svg PUBLIC "-//W3C//DTD SVG 20010904//EN"
 "http://www.w3.org/TR/2001/REC-SVG-20010904/DTD/svg10.dtd">
<svg version="1.0" xmlns="http://www.w3.org/2000/svg"
 width="300.000000pt" height="300.000000pt" viewBox="0 0 300.000000 300.000000"
 preserveAspectRatio="xMidYMid meet">
<metadata>
Created by potrace 1.10, written by Peter Selinger 2001-2011
</metadata>
<g transform="translate(0.000000,300.000000) scale(0.100000,-0.100000)"
fill="#000000" stroke="none">
<path d="M1375 2085 c-51 -17 -37 -17 50 0 56 10 62 13 30 13 -22 0 -58 -5
-80 -13z"/>
<path d="M1605 2091 c22 -4 56 -11 75 -15 28 -5 31 -5 17 4 -10 7 -44 13 -75
15 -49 4 -51 3 -17 -4z"/>
<path d="M1245 2040 c-52 -26 -142 -89 -241 -168 l-29 -23 60 -57 c33 -32 88
-81 122 -111 34 -29 75 -76 92 -102 32 -52 30 -59 -7 -33 -13 9 -26 14 -29 11
-5 -6 70 -47 86 -47 26 0 -83 130 -189 227 l-120 108 33 28 c69 60 175 131
242 163 39 18 63 33 55 34 -8 0 -42 -14 -75 -30z"/>
<path d="M1774 2045 c73 -30 141 -76 245 -166 92 -79 131 -91 131 -39 0 23 5
30 19 30 14 0 21 -8 23 -27 3 -28 4 -28 87 -31 77 -3 83 -4 78 -22 -3 -11 -1
-20 4 -20 5 0 9 11 9 25 0 25 -1 25 -85 25 l-86 0 3 28 c3 24 -1 27 -29 30
-31 3 -33 1 -33 -27 0 -46 -31 -40 -93 17 -107 99 -268 202 -314 202 -10 0 9
-11 41 -25z"/>
<path d="M1422 2020 c-24 -11 -55 -29 -70 -41 -34 -26 -92 -108 -92 -128 1 -9
12 4 25 29 102 196 375 199 485 6 31 -52 37 -56 20 -12 -16 43 -92 118 -145
142 -65 31 -161 32 -223 4z"/>
<path d="M1241 1980 c-68 -37 -180 -122 -181 -136 0 -6 15 -23 33 -39 17 -15
48 -43 68 -62 l36 -34 0 48 c0 32 -1 37 -4 15 -5 -37 -8 -36 -83 32 l-43 39
34 28 c50 42 159 113 164 107 3 -3 -4 -17 -15 -31 -27 -34 -50 -90 -49 -119 0
-13 7 -2 16 27 8 28 31 72 50 98 19 27 33 51 31 52 -2 2 -28 -9 -57 -25z"/>
<path d="M1766 1988 c5 -7 21 -32 36 -54 15 -23 28 -47 28 -52 0 -6 19 -26 43
-44 24 -18 76 -63 115 -99 l72 -65 -42 -40 c-102 -96 -246 -174 -369 -200 -70
-15 -145 -15 -264 0 -36 5 -35 4 10 -8 117 -32 306 -8 421 54 76 42 158 99
214 149 l45 41 -80 75 c-44 41 -94 85 -112 97 -18 13 -40 40 -49 60 -9 21 -23
43 -31 49 -7 6 -13 16 -13 21 0 17 101 -46 163 -102 106 -95 127 -110 157
-110 22 0 29 -5 32 -22 2 -17 11 -24 31 -26 23 -3 27 0 27 22 0 24 3 25 63 29
l62 3 -67 2 c-66 2 -68 1 -68 -23 0 -32 -27 -34 -32 -2 -2 17 -10 23 -39 25
-29 2 -55 19 -128 82 -104 90 -251 180 -225 138z"/>
<path d="M1435 1938 c-33 -18 -76 -61 -93 -93 -25 -49 -20 -134 12 -189 30
-52 97 -97 142 -95 26 1 26 2 -8 8 -47 10 -80 32 -115 78 -25 33 -28 45 -28
112 0 69 3 80 30 115 16 21 48 47 70 57 22 10 33 18 25 18 -8 0 -24 -5 -35
-11z"/>
<path d="M1610 1933 c72 -31 110 -91 110 -173 0 -84 -60 -171 -128 -186 -43
-9 -49 -12 -23 -13 62 -2 150 87 165 168 12 67 -29 155 -93 198 -19 13 -41 23
-50 22 -9 0 0 -7 19 -16z"/>
<path d="M1465 1893 c-57 -31 -85 -74 -85 -131 0 -104 95 -179 190 -151 42 13
110 77 110 103 0 8 2 23 5 33 3 10 -5 -6 -19 -34 -30 -63 -73 -93 -134 -93
-82 0 -142 56 -142 133 0 92 89 165 175 143 37 -9 94 -64 104 -100 6 -20 9
-24 10 -11 1 33 -36 83 -78 105 -48 24 -95 25 -136 3z"/>
<path d="M1245 1790 c-14 -86 50 -218 132 -270 110 -70 229 -64 325 16 47 40
98 110 97 134 0 8 -11 -5 -24 -30 -63 -121 -196 -182 -317 -146 -115 33 -199
148 -199 272 0 35 -2 64 -4 64 -2 0 -6 -18 -10 -40z"/>
<path d="M1527 1802 l-27 -28 24 -23 c27 -26 49 -23 65 8 9 16 7 25 -11 46
l-23 26 -28 -29z m47 -10 c15 -18 15 -20 -4 -37 -19 -17 -22 -17 -36 -3 -13
12 -14 20 -5 37 14 26 23 26 45 3z"/>
<path d="M1804 1760 c0 -70 0 -72 9 -32 6 26 6 54 1 75 -8 27 -10 20 -10 -43z"/>
<path d="M855 1800 c-3 -6 -3 -19 0 -30 6 -19 2 -20 -79 -20 l-86 0 0 -30 0
-30 85 0 c84 0 85 0 85 -25 0 -21 5 -25 30 -25 25 0 30 4 30 25 0 40 35 31 93
-23 110 -102 268 -203 317 -202 8 0 -15 13 -51 29 -64 27 -199 119 -229 156
-27 33 -92 75 -117 75 -18 0 -23 -5 -23 -25 0 -33 -37 -35 -42 -2 -3 20 -9 22
-85 25 -74 2 -83 5 -83 22 0 17 9 20 83 22 81 3 82 3 85 31 4 34 29 36 38 2 4
-17 13 -25 29 -25 24 0 61 -26 175 -125 41 -36 80 -65 85 -64 6 0 -6 12 -24
27 -19 15 -64 53 -100 85 -37 32 -79 66 -96 74 -16 9 -40 26 -52 39 -23 25
-57 32 -68 14z"/>
<path d="M1860 1796 c0 -4 28 -33 61 -64 l62 -56 -47 -42 c-39 -36 -128 -94
-143 -94 -3 0 5 16 17 36 12 19 20 38 16 41 -3 3 -9 -3 -13 -13 -3 -10 -18
-34 -31 -52 -14 -18 -23 -35 -20 -37 15 -15 223 134 223 160 0 5 -28 37 -62
69 -35 32 -63 56 -63 52z"/>
<path d="M2385 1780 c-4 -12 -1 -27 5 -35 27 -33 78 -5 65 35 -3 11 -11 20
-16 20 -6 0 -6 -7 -1 -17 12 -24 4 -43 -18 -43 -26 0 -35 32 -14 47 16 12 16
13 2 13 -9 0 -20 -9 -23 -20z"/>
<path d="M602 1778 c-25 -25 -7 -68 30 -68 9 0 23 10 29 23 12 21 11 22 -8 4
-24 -21 -53 -13 -53 14 0 25 26 35 47 18 14 -12 16 -12 11 1 -6 19 -40 24 -56
8z"/>
<path d="M605 1278 c-3 -8 -4 -83 -3 -168 l3 -155 29 -3 c16 -2 32 1 36 7 4 8
16 6 39 -5 27 -14 40 -15 70 -5 57 16 84 51 89 114 4 49 1 57 -27 89 -38 43
-88 56 -131 35 l-29 -15 -3 57 c-3 55 -3 56 -36 59 -20 2 -34 -2 -37 -10z m65
-63 c0 -30 2 -55 3 -55 2 0 18 7 35 16 45 22 106 4 132 -39 36 -58 19 -138
-35 -167 -34 -18 -92 -16 -114 4 -22 20 -31 20 -31 1 0 -8 -9 -15 -20 -15 -19
0 -20 7 -20 155 l0 155 25 0 c24 0 25 -3 25 -55z"/>
<path d="M691 1114 c-12 -15 -21 -31 -21 -36 0 -14 21 -52 34 -60 21 -14 66
-8 86 12 27 27 25 62 -3 88 -32 30 -71 28 -96 -4z m89 -4 c24 -24 25 -38 4
-68 -36 -51 -117 -8 -95 51 16 41 59 49 91 17z"/>
<path d="M1197 1284 c-4 -4 -6 -68 -5 -143 l2 -136 3 130 c4 132 8 145 46 145
15 0 17 -13 17 -126 0 -111 3 -131 21 -160 l21 -34 -36 0 c-25 0 -39 6 -50 22
-13 18 -16 19 -16 6 0 -23 30 -38 74 -38 40 0 44 9 19 47 -14 21 -19 56 -23
157 l-5 131 -30 3 c-17 2 -34 0 -38 -4z"/>
<path d="M960 1183 c-124 -64 -58 -263 77 -233 18 4 52 5 77 3 l46 -6 0 122 0
122 -47 -1 c-27 -1 -64 1 -83 5 -24 4 -46 0 -70 -12z m95 -7 c19 -8 35 -11 35
-5 0 5 14 9 30 9 l30 0 0 -110 0 -110 -30 0 c-16 0 -30 5 -30 10 0 7 -6 7 -19
0 -32 -17 -96 -12 -123 10 -73 57 -53 180 33 200 19 4 35 8 37 9 1 1 18 -6 37
-13z"/>
<path d="M982 1117 c-12 -13 -22 -33 -22 -44 0 -28 29 -61 62 -68 56 -14 92
71 48 115 -27 27 -62 25 -88 -3z m80 -4 c20 -18 24 -63 6 -81 -20 -20 -76 -15
-88 7 -15 29 -12 49 10 71 24 24 47 25 72 3z"/>
<path d="M1380 1187 c-82 -29 -105 -137 -41 -201 29 -29 36 -31 101 -31 59 0
73 3 92 22 22 22 22 23 3 38 -29 21 -41 18 -14 -4 l23 -18 -32 -17 c-68 -35
-170 -8 -193 52 -16 40 -4 92 28 123 26 26 52 33 112 30 32 -1 91 -62 91 -95
l0 -26 -90 0 c-72 0 -90 -3 -90 -14 0 -35 76 -59 110 -35 11 8 7 9 -16 4 -33
-6 -84 8 -84 25 0 6 35 10 90 10 90 0 90 0 90 25 0 84 -94 143 -180 112z"/>
<path d="M2045 1192 c-55 -19 -85 -61 -85 -119 0 -33 7 -50 31 -78 17 -19 36
-35 42 -35 6 0 -4 12 -22 28 -55 46 -53 140 4 178 29 19 110 21 131 3 10 -8
14 -8 14 0 0 6 11 11 25 11 l25 0 0 -126 c0 -125 0 -126 -28 -154 -50 -50
-152 -50 -197 0 -28 31 -7 45 40 26 21 -9 50 -16 64 -16 44 0 91 57 62 74 -5
3 -14 -1 -21 -9 -7 -8 -29 -16 -49 -17 -36 -1 -36 -1 -4 -5 18 -2 42 1 54 7
33 18 19 -11 -14 -30 -24 -13 -32 -13 -77 3 -94 33 -118 -18 -30 -63 46 -24
94 -26 142 -5 60 24 68 47 68 195 l0 131 -42 -2 c-24 -1 -59 1 -78 4 -19 3
-44 3 -55 -1z"/>
<path d="M2353 1185 c-14 -10 -24 -12 -28 -5 -3 5 -22 10 -41 10 l-34 0 0
-121 0 -120 38 3 c41 3 39 -1 41 110 1 45 3 48 34 56 23 6 32 14 33 30 1 18 1
19 -3 3 -3 -12 -14 -21 -31 -23 -35 -4 -52 -39 -52 -110 0 -55 -1 -58 -25 -58
l-25 0 0 110 0 110 30 0 c21 0 30 -5 30 -17 0 -15 2 -14 20 2 10 9 31 18 44
18 14 0 23 3 20 8 -8 13 -27 11 -51 -6z"/>
<path d="M1560 1185 c0 -3 23 -51 51 -107 l50 -103 -22 -48 c-19 -39 -20 -50
-9 -60 10 -10 11 -9 5 2 -4 7 2 33 15 60 l22 48 -40 79 c-22 43 -43 89 -47
102 -6 21 -4 23 21 20 29 -3 34 -9 65 -81 11 -27 25 -45 31 -41 6 4 6 9 1 13
-5 3 -21 32 -36 64 -25 56 -27 57 -66 57 -23 0 -41 -2 -41 -5z"/>
<path d="M1731 1139 c-29 -67 -21 -74 9 -9 18 39 29 50 47 50 13 0 23 -4 23
-9 0 -23 -128 -293 -143 -303 -8 -5 -9 -8 -1 -8 18 0 28 17 91 160 82 186 79
170 35 170 -36 0 -39 -3 -61 -51z"/>
<path d="M1386 1124 c-27 -27 -18 -34 44 -34 63 0 71 7 42 33 -23 21 -66 22
-86 1z m84 -9 c11 -13 5 -15 -40 -15 -45 0 -51 2 -40 15 7 8 25 15 40 15 15 0
33 -7 40 -15z"/>
<path d="M2050 1120 c-42 -42 -13 -110 47 -110 30 0 63 34 63 65 0 14 -9 34
-20 45 -11 11 -31 20 -45 20 -14 0 -34 -9 -45 -20z m78 -6 c26 -18 28 -50 5
-76 -20 -22 -51 -23 -75 -1 -22 20 -23 51 -1 75 20 22 42 23 71 2z"/>
<path d="M1844 1106 c-10 -43 1 -58 43 -54 36 3 38 5 38 38 0 33 -2 35 -37 38
-33 3 -38 0 -44 -22z m74 -18 c3 -25 0 -28 -27 -28 -28 0 -31 3 -31 31 0 27 3
30 28 27 21 -2 28 -9 30 -30z"/>
</g>
</svg>
